<?xml version="1.0" encoding="UTF-8" standalone="no"?>
<!-- Created with Inkscape (http://www.inkscape.org/) -->

<svg
   xmlns:dc="http://purl.org/dc/elements/1.1/"
   xmlns:cc="http://creativecommons.org/ns#"
   xmlns:rdf="http://www.w3.org/1999/02/22-rdf-syntax-ns#"
   xmlns:svg="http://www.w3.org/2000/svg"
   xmlns="http://www.w3.org/2000/svg"
   xmlns:sodipodi="http://sodipodi.sourceforge.net/DTD/sodipodi-0.dtd"
   xmlns:inkscape="http://www.inkscape.org/namespaces/inkscape"
   width="49.321102mm"
   height="56.847694mm"
   viewBox="0 0 49.321102 56.847694"
   version="1.1"
   id="svg8"
   inkscape:version="0.92.2 2405546, 2018-03-11"
   sodipodi:docname="av-logo.svg">
  <defs
     id="defs2" />
  <sodipodi:namedview
     id="base"
     pagecolor="#ffffff"
     bordercolor="#666666"
     borderopacity="1.0"
     inkscape:pageopacity="0.0"
     inkscape:pageshadow="2"
     inkscape:zoom="1.979899"
     inkscape:cx="-48.789552"
     inkscape:cy="113.52188"
     inkscape:document-units="mm"
     inkscape:current-layer="layer1"
     showgrid="false"
     fit-margin-top="0"
     fit-margin-left="0"
     fit-margin-right="0"
     fit-margin-bottom="0"
     inkscape:window-width="1918"
     inkscape:window-height="1065"
     inkscape:window-x="0"
     inkscape:window-y="1067"
     inkscape:window-maximized="0" />
  <g
     inkscape:label="Layer 1"
     inkscape:groupmode="layer"
     id="layer1"
     transform="translate(-37.720787,-150.04845)">
    <metadata
       id="metadata5">
      <rdf:RDF>
        <cc:Work
           rdf:about="">
          <dc:format>image/svg+xml</dc:format>
          <dc:type
             rdf:resource="http://purl.org/dc/dcmitype/StillImage" />
          <dc:title></dc:title>
        </cc:Work>
      </rdf:RDF>
    </metadata>
    <path
       inkscape:connector-curvature="0"
       id="path944"
       d="m 71.431131,206.34339 c -4.79597,-1.00188 -10.68344,-3.83163 -15.74271,-7.56656 -3.18034,-2.34784 -8.83705,-8.07588 -11.04607,-11.18537 -3.13938,-4.41909 -5.62693,-9.86706 -6.5841,-14.41979 -0.49421,-2.35068 -0.43555,-7.09161 0.11007,-8.89634 0.87898,-2.90741 3.11321,-5.32583 5.9351,-6.42442 2.01329,-0.7838 6.96382,-0.87745 10.07248,-0.19055 4.59195,1.01466 9.89337,3.5067 14.54241,6.83594 2.70298,1.93565 7.21074,5.90475 7.21074,6.34909 0,0.41905 -2.36121,2.1785 -2.93556,2.18743 -0.23211,0.004 -0.64839,-0.24359 -0.92507,-0.54932 -0.90493,-0.99993 -4.9882,-3.56688 -7.01811,-4.41193 -9.74672,-4.05757 -14.53083,2.02843 -9.48583,12.06718 3.40945,6.78427 10.34095,12.6818 16.86688,14.35085 2.49921,0.63919 3.76953,0.63264 5.61435,-0.029 l 1.45521,-0.52187 3.63802,3.75562 c 2.00091,2.06559 3.63802,3.95443 3.63802,4.19742 0,0.7031 -1.94116,2.71793 -3.36536,3.49308 -2.94151,1.60097 -7.25354,1.94595 -11.98047,0.95849 z m 6.41253,-18.2263 c -2.61334,-0.68475 -6.00718,-2.31624 -9.04358,-4.34742 -3.11863,-2.0862 -6.1002,-4.53647 -6.1002,-5.01319 0,-0.31635 4.02501,-3.06946 5.07861,-3.47377 0.25288,-0.097 1.10521,0.37051 2.22946,1.223 3.64786,2.76609 7.91455,4.25364 9.62526,3.35577 1.05822,-0.55542 1.64169,-1.96198 1.45801,-3.51481 -0.50959,-4.30794 -6.11115,-11.65997 -11.76539,-15.44203 -2.02486,-1.35441 -4.78102,-2.68193 -5.56813,-2.68193 -0.34735,0 -6.87378,-7.47068 -6.87645,-7.87135 -0.003,-0.43931 0.18025,-0.42152 1.95816,0.19017 7.07967,2.43577 16.1916,9.87001 22.38627,18.26451 2.14707,2.90953 4.82635,8.10755 5.44155,10.55706 0.63431,2.52558 0.44263,5.7226 -0.41944,6.99586 -1.47059,2.17201 -4.44768,2.79481 -8.40413,1.75813 z"
       style="fill:#f4b291;stroke-width:0.26458332" />
    <path
       style="fill:#e95c04;fill-opacity:1;stroke:none;stroke-width:91.69403839;stroke-miterlimit:4;stroke-dasharray:none;stroke-opacity:1"
       d="m 300.79798,712.14478 c -14.25572,-2.23625 -32.64512,-11.36027 -51.07143,-25.33942 -8.84016,-6.70659 -12.8855,-10.59668 -12.18995,-11.72211 0.88579,-1.43323 17.6091,-12.21905 18.94553,-12.21905 0.73381,0 4.97829,2.44595 9.43217,5.43543 9.56594,6.42074 12.9787,8.2209 20.14736,10.62735 6.00674,2.01639 12.31748,2.34314 15.31519,0.79297 3.1641,-1.63622 5.13781,-5.96835 5.12035,-11.23871 -0.0389,-11.74136 -9.93026,-28.38862 -27.12779,-45.65645 -12.20289,-12.25277 -25.34725,-21.22712 -35.57657,-24.29 -2.37317,-0.71058 -4.40367,-2.32149 -8.88108,-7.04589 -7.0591,-7.44849 -19.82807,-22.6849 -19.82807,-23.65958 0,-0.95275 2.63768,-0.27355 10.35714,2.66698 27.56075,10.49853 64.43348,42.14437 84.7369,72.72505 5.32329,8.01785 13.49383,24.01935 16.08105,31.49374 1.71106,4.94321 1.96064,6.76481 1.9973,14.57769 0.0505,10.75588 -1.04394,14.39249 -5.47194,18.1827 -4.84716,4.14898 -13.53756,5.9946 -21.98616,4.6693 z"
       id="path963"
       inkscape:connector-curvature="0"
       transform="scale(0.26458333)" />
    <path
       style="fill:#e9f504;fill-opacity:1;stroke:none;stroke-width:91.69403839;stroke-miterlimit:4;stroke-dasharray:none;stroke-opacity:1"
       d="m 274.01226,780.39506 c -22.14821,-4.03825 -49.68289,-17.62107 -69.49532,-34.28196 -7.69452,-6.47056 -26.15856,-25.28985 -32.04727,-32.66385 -11.2067,-14.03337 -22.15021,-35.69808 -27.09993,-53.64939 -2.2013,-7.98353 -3.11656,-25.36661 -1.79431,-34.07851 1.14715,-7.5582 4.84348,-14.7961 10.35778,-20.28187 8.67735,-8.63247 15.26662,-10.77826 32.93619,-10.72563 10.73761,0.032 13.05214,0.26101 20,1.97896 23.79904,5.88465 49.72427,20.65872 71.95278,41.0039 2.85455,2.61269 5.79081,5.506 6.52504,6.42959 1.3148,1.65388 1.3094,1.7071 -0.35714,3.52351 -2.11005,2.29979 -7.68461,5.92868 -9.1074,5.92868 -0.58531,0 -2.54936,-1.25231 -4.36457,-2.78292 -8.67098,-7.31147 -25.68811,-16.58356 -35.00585,-19.07355 -7.02628,-1.87764 -17.2392,-1.72813 -21.78571,0.31894 -4.64615,2.09192 -8.43338,5.84226 -10.49158,10.38939 -1.42623,3.15094 -1.64723,4.76765 -1.62155,11.86243 0.0267,7.36594 0.27094,8.91908 2.36526,15.03871 9.25098,27.03146 34.69051,53.47458 60.92528,63.32876 12.97133,4.87223 20.47835,5.43983 29.85184,2.25711 l 4.60068,-1.56214 10.04891,10.29021 c 5.5269,5.65961 11.73315,12.31554 13.79167,14.79095 3.59326,4.32099 3.70292,4.57775 2.74554,6.42857 -0.54847,1.0603 -2.95375,3.79384 -5.34507,6.07453 -7.86664,7.50266 -17.61637,10.54338 -33.44801,10.43169 -5.02549,-0.0355 -11.38726,-0.4747 -14.13726,-0.97611 z"
       id="path965"
       inkscape:connector-curvature="0"
       transform="scale(0.26458333)" />
    <path
       style="fill:#f07f48;fill-opacity:1;stroke:none;stroke-width:45.8470192;stroke-miterlimit:4;stroke-dasharray:none;stroke-opacity:1"
       d="m 281.86341,781.00851 c -8.49647,-0.48387 -17.35656,-2.53462 -27.87042,-6.45087 -17.54258,-6.53435 -36.75596,-17.6764 -49.6225,-28.77664 -7.42231,-6.40338 -23.61948,-22.76127 -29.97909,-30.27655 -10.51506,-12.42587 -20.93605,-31.58041 -26.91095,-49.46429 -3.40463,-10.19066 -4.50484,-18.73157 -4.17722,-32.42775 0.2057,-8.59928 0.82234,-11.97705 3.10902,-17.03028 3.43096,-7.58194 10.6711,-15.16665 17.55045,-18.38572 5.2682,-2.46516 10.80558,-3.22767 23.43939,-3.22767 10.1709,0 12.73215,0.25455 19.59608,1.94762 23.79219,5.8686 49.29086,20.46814 72.14409,41.30689 4.83064,4.40483 6.92525,6.69195 6.92525,7.56176 0,1.1422 -4.87457,5.16344 -8.48401,6.99881 -1.45017,0.7374 -1.5722,0.74562 -2.66666,0.17966 -0.63081,-0.32621 -2.75944,-1.83657 -4.73028,-3.35636 -9.75209,-7.5202 -24.40454,-15.40008 -33.12675,-17.81509 -6.21992,-1.72218 -15.87915,-1.92097 -20.66092,-0.42519 -6.47259,2.02467 -12.37804,8.63508 -13.58709,15.20904 -0.24491,1.33168 -0.32792,4.77918 -0.21926,9.10714 0.15535,6.18805 0.27993,7.31595 1.11776,10.11933 5.9356,19.86069 20.42698,39.83136 39.14292,53.94313 8.74869,6.59649 16.87845,10.95556 26.37874,14.14392 11.47373,3.85068 17.37495,4.0834 26.69418,1.05275 l 4.32292,-1.40584 6.60331,6.69836 c 14.62903,14.83959 20.28657,21.29743 20.28657,23.15621 0,1.38971 -1.5619,3.45906 -5.39845,7.15238 -4.51951,4.35077 -9.78593,7.29486 -15.89598,8.88633 -5.67529,1.47822 -14.98559,2.09122 -23.9811,1.57892 z"
       id="path1036"
       inkscape:connector-curvature="0"
       transform="scale(0.26458333)" />
  </g>
</svg>
