<?xml version="1.0" encoding="UTF-8"?>
<svg enable-background="new 0 0 386.48 417.559" viewBox="0 0 386.48 417.559" xmlns="http://www.w3.org/2000/svg">
 <path d="m98.293,42.051c6.046,8.353 20.089,5.634 24.313-2.832 2.682-5.375 1.655-7.26-.937-12.459-1.813-3.636-4.652-9.407-7.156-12.424-6.677-8.044-19.703-17.416-23.655-3.563-2.298,8.053 3.882,24.161 7.435,31.278" fill="#f0f0f0" fill-rule="evenodd"/>
 <path d="m208.975,246.574c-2.067-8.282-5.312-15.548-9.542-22.938-4.901-8.563-13.786-14.029-21.976-20.544-9.185-7.306-14.965-10.313-26.137-14.186-4.778-1.657-8.427-4.054-13.226-2.452-3.952,1.319-12.377,2.267-14.816,5.82l-9.513,13.857c-2.382,3.47-1.718,12.416-2.234,16.551-1.4,11.223 1.843,22.239 3.754,33.343 3.554,20.646 18.486,37.701 30.715,53.626-19.194,0-38.358-1.57-57.525-2.581-17.873-.942-39.62-2.353-56.511,4.696-3.671,1.532-8.831,5.283-12.747,3.976-5.502-1.837-9.534-3.226-15.297-3.226-5.11,0-4.19,6.935-2.951,10.036 1.916,4.796 7.479,6.277 12.404,5.256 8.447-1.752 14.272-7.641 23.342-8.938 7.409-1.06 19.875-.052 26.273,4.159-11.556,6.633-25.453,8.393-36.617,15.851-5.297,3.539-8.14,8.553-14.43,9.953-9.175,2.043-11.218,7.701-3.375,13.594 6.488,4.874 11.677-4.422 13.888-8.851 2.948-5.905 10.151-8.937 16.203-10.954 14.066-4.692 27.813-5.767 42.46-4.302-10.421,3.635-18.898,15.63-27.635,22.194-5.04,3.786-38.52,9.702-24.843,18.901 4.649,3.127 11.663,1.807 16.221-.478 5.233-2.621 6.509-9.602 12.045-13.299 10.016-6.69 21.959-9.582 33.754-11.55 24.799-4.137 48.52-12.35 73.098-16.83 14.59-2.659 26.9-3.458 41.783-2.861 3.472.14 13.935-1.501 15.183-4.419 3.046-7.122 1.279-11.553-3.727-17.568-12.437-14.95-28.387-27.565-43.325-40.034 8.195,4.69 15.239,9.188 22.529,15.161 4.699,3.852 13.089,13.431 19.418,11.847 6.67-1.667-5.647-47.987-6.643-52.81" fill="#008000" fill-rule="evenodd"/>
 <path d="m206.112,246.574c-4.073-6.649-6.021-15.049-9.542-21.981-4.442-8.745-14.311-13.959-22.478-20.156-9.329-7.079-16.28-9.584-27.633-13.223-7.311-2.343-19.734-1.483-24.146,5.588-7.23,11.586-8.547,18.239-10.325,31.886-1.197,9.191 2.767,20.008 4.385,29.088 3.423,19.204 18.583,36.74 29.626,51.877-37.79,0-75.977-7.496-113.117,1.803-3.876.971-7.698,3.142-11.385,4.681-2.869,1.197-9.238-2.661-12.896-2.661-11.334,0-3.594,16.181 5.725,14.335 3.692-.731 6.807-5.594 10.287-6.988 4.347-1.742 8.387-2.568 13.089-2.568 7.382,0 19.01.648 25.285,4.778-11.009,6.319-24.599,7.822-35.197,14.902-4.707,3.144-8.849,9.267-14.244,10.618-7.057,1.768-11.569,7.957-3.073,12.213 7.742,3.877 9.985-3.191 12.899-9.026 2.657-5.322 12.121-8.06 17.351-9.805 13.268-4.425 26.635-4.987 40.393-3.611-10.421,3.635-18.898,15.63-27.635,22.194-5.858,4.401-11.413,4.934-18.627,6.379-6.288,1.26-9.948,8.41-2.459,10.91 4.053,1.353 14.588,3.835 16.579-2.149 2.113-6.352 7.146-10.22 13.06-13.441 10.896-5.936 22.802-7.616 34.35-11.469 11.599-3.87 24.917-3.859 36.823-7.433 12.262-3.682 25.387-9.707 38.235-10.778 14.464-1.207 28.345.165 42.273-4.128 14.699-4.53-6.555-25.351-11.026-29.83-9.208-9.224-19.378-17.42-29.019-26.198 6.111,3.569 33.224,27.089 38.166,21.98 3.566-3.687-.323-18.941-.954-22.938-1.312-8.318-3.182-16.579-4.77-24.849" fill="#008500" fill-rule="evenodd"/>
 <path d="m202.296,246.574c-3.902-6.369-6.714-15.391-9.064-22.46-2.792-8.394-15.142-13.901-22.499-19.198-8.487-6.109-15.255-8.098-25.475-11.084-5.896-1.723-19.578-1.547-22.906,4.377-6.406,11.408-8.133,17.198-9.316,30.238-.889,9.794 2.356,19.824 4.134,29.443 3.457,18.7 18.371,36.629 28.83,51.762-36.488,0-74.399-7.891-110.247,1.085-3.894.975-7.41,2.541-11.125,4.092-5.365,2.239-6.823-1.381-12.21-1.354-11.582.057-6.108,14.583 2.862,13.38 3.339-.448 6.294-4.815 9.333-6.033 4.347-1.742 8.387-2.568 13.089-2.568 7.382,0 19.01.648 25.285,4.778-10.905,6.26-23.856,8.602-34.861,14.902-4.334,2.481-8.326,8.754-12.787,10.244-6.393,2.135-11.475,6.414-3.664,11.631 5.898,3.94 9.686-4.041 11.697-8.07 2.657-5.322 12.121-8.06 17.351-9.805 13.268-4.425 26.635-4.987 40.393-3.611-10.421,3.635-18.898,15.63-27.635,22.194-5.703,4.284-10.98,3.593-17.209,6.478-9.017,4.176-4.56,7.538 2.116,10.214 7.425,2.976 8.717-2.718 12.195-6.392 4.359-4.604 10.332-7.962 15.779-11.078 9.442-5.403 22.753-10.015 33.465-11.965 26.642-4.852 51.997-15.539 78.985-18 8.292-.756 33.343,2.122 34.931-10.565 1.433-11.449-13.432-23.794-21.097-30.192-6.477-5.407-12.738-10.956-18.977-16.637 5.988,3.599 11.843,7.271 17.653,11.15 2.062,1.377 14.854,12.273 15.842,5.356 2.065-14.461-1.816-28.248-4.868-42.312" fill="#008c00" fill-rule="evenodd"/>
 <path d="m198.479,247.529c-2.851-7.131-4.704-15.156-8.111-21.981-2.176-4.357-1.047-4.209-5.877-7.486l-17.1-11.603c-12.267-8.323-38.096-17.394-46.977-.712-18.452,34.657 6.098,75.197 25.586,103.906-34.496,0-72.051-8.479-105.911-.001-7.604,1.903-15.961,7.583-23.411,5.45-10.511-3.009-10.075,11.668-.443,10.797 3.482-.315 6.784-4.438 10.019-5.734 4.483-1.797 8.968-1.911 13.746-1.911 6.587,0 17.441,1.127 22.989,4.778-10.252,5.885-22.564,7.861-32.884,13.77-5.359,3.069-8.977,7.59-13.87,11.078-2.417,1.723-5.729-.198-6.679,3.822-.765,3.237 1.688,4.634 4.029,6.196 7.428,4.958 7.156-4.8 11.273-7.894 5.493-4.128 10.99-6.443 17.457-8.601 12.636-4.215 25.744-4.387 38.802-3.081-10.421,3.635-18.898,15.63-27.635,22.194-5.112,3.841-11.705,2.821-16.291,6.266-7.51,5.64.999,10.631 7.668,8.813 4.887-1.332 7.844-6.545 12.045-10.053 5.561-4.642 11.144-7.818 17.793-10.675 11.773-5.056 22.425-8.403 35.045-10.812 12.971-2.476 25.294-6.932 37.918-10.724 13.759-4.134 27.322-5.359 41.552-6.859 13.104-1.381 26.186-6.692 16.554-21.163-7.53-11.313-17.744-19.862-27.72-28.945l-4.377-3.985c5.527,3.459 24.062,17.84 28.625,11.468 5.297-7.394-2.205-28.659-3.815-36.318" fill="#009100" fill-rule="evenodd"/>
 <path d="m195.616,247.529c-4.183-6.41-4.991-13.44-7.633-20.069-3.397-8.521-13.641-12.222-21.235-17.039-11.457-7.268-36.77-19.674-45.378-2.429-17.375,34.804 5.892,72.332 24.631,101.661-16.087,0-32.092-1.239-48.154-2.087-16.24-.856-35.784-3.416-51.711.572-7.885,1.975-17.344,7.075-25.128,8.203-3.146.456-8.475-3.259-10.496.957-1.728,3.604 3.978,7.7 6.679,7.645 3.405-.07 7.454-4.133 10.704-5.436 3.731-1.496 8.175-1.254 12.106-1.254 6.587,0 17.441,1.127 22.989,4.778-9.701,5.568-21.487,7.244-31.228,12.821-5.738,3.286-29.485,17.246-15.049,22.063 4.333,1.445 6.938-7.004 9.983-9.293 4.793-3.602 10.496-5.89 16.256-7.431 12.902-3.451 24.954-4.19 38.166-2.869-9.872,3.443-17.566,14.63-25.797,20.813-2.011,1.511-4.858,4.594-7.28,5.133-2.697.601-6.372.717-8.693,2.266-7.329,4.891 4.938,8.489 9.294,7.398 2.218-.556 9.986-9.828 12.798-12.176 4.064-3.394 10.11-6.218 14.848-8.591 5.613-2.812 11.42-5.802 17.234-8.152 6.103-2.467 12.348-2.092 18.695-3.364 11.979-2.4 23.473-6.893 35.056-10.76 13.078-4.367 26.782-5.99 40.437-7.51 38.843-4.322-1.526-39.723-14.039-51.001 4.206,2.406 22.489,14.878 24.003,5.792 1.776-10.667-.09-20.132-2.058-30.641" fill="#090" fill-rule="evenodd"/>
 <path d="m191.8,247.529c-3.215-6.441-5.486-12.561-7.633-19.114-2.728-8.326-11.137-11.109-18.884-15.926-10.817-6.725-36.032-17.417-43.914-1.631-16.302,32.653 7.957,70.956 24.631,98.794-16.087,0-32.092-1.239-48.154-2.087-16.24-.856-35.784-3.416-51.711.572-8.346,2.09-16.902,6.508-25.128,8.203-1.452.299-9.671-2.173-7.156,2.868 .947,1.897 1.705,7.029 5.248,5.256 12.367-6.19 30.838-10.024 43.891-1.434-9.701,5.568-21.487,7.244-31.228,12.821-4.271,2.445-24.945,15.543-15.526,20.629 4.925,2.659 7.08-5.318 10.46-7.859 4.793-3.602 10.496-5.89 16.256-7.431 12.902-3.451 24.954-4.19 38.166-2.869-9.21,3.213-17.507,13.782-24.808,20.07-1.932,1.664-5.274,4.8-7.633,5.734-2.547,1.009-5.59-.137-7.633,1.911-5.487,5.498 7.802,8.267 9.065,5.734 4.946-9.918 18.658-14.687 27.3-20.459 4.904-3.275 10.634-5.997 16.113-8.212 5.573-2.253 11.371-1.249 16.858-3.08 11.165-3.726 22.239-7.743 33.395-11.468 12.192-4.071 24.374-5.023 36.927-7.38 12.692-2.383 25.029-7.513 17.813-21.965-5.379-10.774-16.07-18.923-24.843-26.83 6.022,2.411 14.525,7.978 19.083,1.911 4.679-6.224.09-19.951-.955-26.758" fill="#009e00" fill-rule="evenodd"/>
 <path d="m187.983,248.486c-3.355-5.884-6.679-10.798-6.679-17.682 0-9.205-10.262-11.539-17.45-15.653-7.995-4.576-13.043-6.416-22.125-8.234-6.213-1.245-17.572-.939-20.328,6.237-12.938,33.696 7.958,67.919 24.6,96.498-15.514,0-30.935-1.179-46.425-1.995-16.226-.856-36.343-3.8-52.28.19-8.583,2.148-16.35,4.346-24.5,7.746-2.049.855-5.579.117-6.56,2.659-.586,1.521 1.165,5.271 2.863,5.734 1.445.395 6.968-3.748 8.795-4.48 3.731-1.496 8.175-1.254 12.106-1.254 8.168,0 15.729.611 22.989,4.778-9.701,5.568-21.487,7.244-31.228,12.821-3.904,2.235-22.334,13.63-13.618,18.717 4.248,2.479 5.219-3.441 8.552-5.947 4.793-3.602 10.496-5.89 16.256-7.431 12.902-3.451 24.954-4.19 38.166-2.869-8.461,2.951-17.909,13.16-24.212,19.473-1.602,1.604-3.59,2.847-5.402,4.208-2.293,1.723-6.384,1.861-8.075,3.558-2.905,2.914 5.663,6.752 6.679,5.733 16.3-16.342 35.917-29.364 58.681-33.926 11.589-2.322 21.911-6.998 33.078-10.726 11.545-3.855 23.025-4.662 34.821-7.194 11.02-2.365 23.311-7.813 19.6-20.822-2.914-10.213-15.039-19.416-22.617-26.247 17.605,6.238 16.987-11.844 14.313-23.892" fill="#0fa600" fill-rule="evenodd"/>
 <path d="m185.121,248.486c-4.479-6.283-6.678-9.976-6.678-16.726 0-8.899-8.847-10.312-15.974-14.014-7.833-4.067-13.413-6.142-22.053-7.964-6.117-1.29-16.306-.815-19.015,6.239-12.193,31.755 8.902,66.675 24.6,93.631-24.457,0-48.81-2.868-73.271-2.868-12.766,0-24.596.854-36.976,3.953-7.996,2.002-18.395,3.511-15.702,12.294 12.51-6.821 30.411-7.189 42.937,0-4.139,2.376-57.699,21.762-43.891,30.583 3.751,2.396 4.446-2.623 7.598-4.992 4.793-3.602 10.496-5.89 16.256-7.431 12.902-3.451 24.954-4.19 38.166-2.869-8.461,2.951-17.909,13.16-24.212,19.473-6.656,6.667-14.242,5.088-6.798,12.544-.493-.493 22.592-17.715 25.285-19.592 10.83-7.548 19.528-12.512 32.688-15.15 10.954-2.196 20.921-6.493 31.239-10.654 10.481-4.227 21.546-5.395 32.441-8.123 8.27-2.07 23.165-7.212 21.61-18.125-1.52-10.66-12.42-19.022-19.702-26.315 11.413.628 11.452-16.505 11.452-23.894" fill="#29ad00" fill-rule="evenodd"/>
 <path d="m139.321,165.338c-20.427,17.538-41.187,32.952-64.005,47.237-11.725,7.34-22.594,10.142-36.004,10.813-15.7.787-21.354-14.343-26.327-26.299-5.185-12.465-4.039-27.378-5.015-40.737-.373-5.101 1.297-8.446 3.197-13.204 1.67-4.181 4.985-11.467 7.72-15.118 7.103-9.485 10.603-17.912 20.249-25.769 6.802-5.541 10.861-13.537 18.129-10.512-9.634,8.042-21.031,17.404-23.606,30.299-1.98,9.913 25.318,2.684 31.24,9.841 1.366,1.651 2.039,5.083 2.916,7.133 2.179,5.093 4.856,2.632 7.121,6.034 3.672,5.518-2.837,11.936-7.174,5.947-3.83-5.289-3.09-11.975-10.496-15.292-5.935-2.658-10.604,1.4-16.22,1.912 7.377,7.39 17.731,9.158 25.02,16.459 4.088,4.096-2.048,10.009-4.487,13.428-2.671,3.745-1.046,11.797-8.341,6.925-4.534-3.028-3.354-8.141 1.837-8.141 4.018,0 6.99-7.627 3.357-10.053-3.975-2.654-7.802-4.772-12.581-3.575-6.165,1.544-4.314,7.836-5.513,12.637-1.247,4.994-2.338,10.237-3.11,15.327-1.066,7.029-1.134,7.563 5.411,10.543 11.69,5.322 20.667-3.038 28.129-11.342 14.918-16.603 25.993-37.383 38.976-55.588 3.618,7.32 8.753,14.287 13.357,21.025 4.224,6.181 9.291,16.762 16.22,20.07" fill="#008000" fill-rule="evenodd"/>
 <path d="m111.651,23.893c10.894-6.838 24.637-4.854 35.622.036 13.345,5.94 25.509,11.339 39.551,15.84 26.066,8.355 49.441,18.666 71.745,34.625 21.284,15.23 41.396,30.716 58.227,50.806 17.773,21.215 31.664,43.857 45.186,67.931 12.589,22.414 19.392,51.508 22.711,76.78 2.065,15.723 2.184,28.797 1.162,44.668-.667,10.349-4.589,25.37-12.163,32.511-3.872,3.65-9.048,11.054-14.222,12.632-5.72,1.743-15.063,6.852-20.975,6.296-13.008-1.221-25.942-1.354-38.318-5.596-13.494-4.624-25.997-9.354-40.069-11.367-14.361-2.055-28.243-4.042-42.295-7.561-13.408-3.357-26.568-7.32-37.461-16.55-11.158-9.454-16.299-23.023-21.908-35.942-9.58-22.067-12.034-49.532-15.947-73.052-1.46-8.777-2.921-17.554-4.381-26.331-.926-5.566-.761-12.903-3.952-17.696-6.889-10.348-12.457-21.644-18.693-32.387-2.8-4.824-5.2-10.85-10.302-12.98-6.145-2.565-12.966-3.75-18.959-6.417-13.942-6.207-23.868-10.729-32.579-23.815-3.128-4.7-3.562-11.045-8.768-13.652-3.12-1.563-7.93-4.265-11.45-4.301 4.038-16.177 10.244-33.184 27.298-39.396 16.745-6.103 33.962-9.768 50.94-15.082" fill="#008000" fill-rule="evenodd"/>
 <path d="m111.65 26.76c12.123 0 24.257-0.821 35.941 3.08 13.159 4.393 26.104 9.353 39.278 13.752 26.494 8.846 48.797 22.2 71.347 38.332 42.821 30.635 77.662 69.577 99.606 117.82 11.58 25.458 18.384 52.908 22.718 80.399 2.239 14.209 1.633 27.442 1.169 41.872-0.452 14.024-9.849 25.328-18.747 34.837-8.052 8.603-23.914 9.309-35.118 8.223-16.134-1.563-28.182-4.831-43.586-10.109-13.447-4.608-26.407-6.235-40.543-8.258-13.724-1.964-26.87-5.457-40.331-8.828-24.167-6.052-40.978-31.923-46.807-54.553-6.95-26.979-11.872-54.091-16.444-81.568-2.48-14.906-3.813-26.375-11.308-39.288-6.098-10.505-13.179-20.666-18.606-31.539-4.27-8.554-25.561-11.588-34.315-15.345-13.969-5.996-20.245-16.096-26.282-29.4-1.923-4.238-14.062-5.142-12.868-9.628 3.175-11.926 6.349-21.281 15.18-30.125 13.597-13.619 41.943-14.928 59.716-19.675" fill="#008700" fill-rule="evenodd"/>
 <path d="m111.651,29.627c53.077,7.79 101.936,24.325 144.078,58.298 20.394,16.441 42.115,31.398 57.967,52.568 15.873,21.197 32.178,42.697 41.077,67.956 9.756,27.689 17.649,54.225 22.335,83.172 1.632,10.08 3.309,24.909.383,34.538-1.956,6.437-3.006,14.925-6.31,20.765-1.849,3.268-10.196,13.472-13.711,14.432-6.499,1.775-13.938,5.169-20.639,5.638-7.297.511-15.977-2.134-23.226-3.102-13.676-1.826-26.956-8.107-39.968-12.566-12.331-4.226-27.272-4.239-40.171-6.085-10.504-1.503-25.177-3.76-34.309-9.165-13-7.696-24.068-13.978-32.166-27.382-6.914-11.445-10.363-25.166-13.66-37.962-7.052-27.376-10.965-55.545-15.603-83.418-.827-4.973-.726-11.123-3.569-15.393-3.363-5.051-6.896-10.662-9.6-16.08-4.88-9.776-11.493-25.988-21.497-30.165-12.639-5.275-26.216-8.175-37.472-16.228-5.241-3.75-8.36-9.2-11.19-14.833-3.37-6.707-3.925-9.134-9.542-12.425-1.902-1.114-3.413-2.529-5.725-2.867 4.203-16.836 9.045-30.336 25.762-38.228 14.12-6.664 31.511-8.197 46.756-11.468" fill="#008f00" fill-rule="evenodd"/>
 <path d="m111.651,32.494c11.681,5.851 23.364,10.452 36.434,12.088 6.287.787 12.823.336 19.155.336 6.025,0 13.767,4.578 19.469,6.577 25.568,8.963 45.573,26.46 66.158,43.121 21.065,17.048 43.413,32.494 59.792,54.369 16.093,21.492 29.119,43.947 39.341,68.813 10.549,25.663 16.036,53.506 21.866,80.518 2.351,10.89 1.224,25.651-1.711,36.433-3.991,14.656-9.422,25.841-25.105,29.581-12.395,2.957-26.7,3.004-39.041-1.226-12.044-4.127-25.054-10.782-37.652-12.584-28.533-4.083-57.479-6.323-82.616-21.203-24.72-14.633-30.751-44.395-37.411-70.247-6.895-26.763-9.868-55.349-14.4-82.589-1.523-9.153-11.063-21.393-16.254-29.194-2.958-4.444-6.088-9.611-8.47-14.383-3.282-6.576-9.349-8.26-16.338-10.36-13.158-3.954-25.566-8.721-34.738-19.327-4.807-5.559-6.662-10.46-8.946-17.322-.705-2.12-6.715-4.856-9.183-6.093-3.171-1.588 5.898-18.636 7.73-22 4.013-7.368 9.252-11.396 16.442-15.397 12.579-7.002 31.547-6.691 45.478-9.911" fill="#009600" fill-rule="evenodd"/>
 <path d="m111.651,35.361c9.869,6.589 20.316,14.533 32.442,16.247 4.055.573 13,1.075 16.856-.212 9.271-3.095 11.605-1.028 20.673,3.009 25.875,11.52 45.795,26.554 67.216,44.945 19.742,16.95 40.631,30.945 57.225,51.258 17.6,21.543 29.69,45.423 40.21,71.013 10.628,25.852 16.919,52.98 22.95,80.159 2.879,12.976 2.192,26.904-.703,39.664-1.914,8.438-3.014,10.207-9.156,16.36-6.203,6.214-10.789,6.727-19.494,8.906-25.778,6.453-49.403-13.314-73.738-16.796-13.852-1.981-27.887-3.306-41.469-6.707l-23.076-5.778c-6.346-1.589-13.417-7.858-19.054-11.195-21.002-12.432-28.021-47.455-32.715-69.147-5.919-27.354-9.692-55.38-14.284-82.976-.593-3.565-5.961-10.518-8.052-13.658-3.362-5.052-6.894-10.662-9.599-16.081-2.208-4.425-5.551-13.021-9.094-16.306-4.262-3.951-14.786-5.782-20.285-7.434-11.982-3.6-24.5-9.471-30.763-20.76-3.006-5.419-5.123-11.501-9.064-15.77-.516-.558-4.487-4.675-4.607-4.314 5.143-15.456 8.477-29.708 24.645-36.781 13.256-5.8 28.837-5.473 42.936-7.646" fill="#009e00" fill-rule="evenodd"/>
 <path d="m111.651,39.184c11.072,7.921 21.117,16.518 34.511,19.871 4.748,1.188 12.269.186 16.625-1.996 8.773-4.393 11.124-1.867 20.328,1.929 24.858,10.252 44.097,29.68 64.028,47.095 20.313,17.749 42.851,32.974 58.828,54.98 15.648,21.552 27.975,42.891 36.587,68.307 10.808,31.898 54.532,136.524-8.587,139.534-11.605.554-25.691-4.39-36.56-8.509-13.616-5.16-25.264-9.621-39.568-11.668-14.488-2.072-28.262-4.289-42.438-7.839-11.07-2.772-27.697-6.999-35.278-16.221-9.494-11.549-15.055-20.403-21.001-34.1-4.521-10.414-6.91-22.409-9.306-33.482-5.656-26.134-9.282-52.915-13.669-79.281-1.514-9.1-9.35-18.786-14.002-26.803-2.59-4.463-5.17-9.204-8.022-13.488-4.566-6.858-5.273-9.423-13.163-12.716-11.115-4.64-21.954-6.743-32.141-13.546-5.836-3.897-8.834-9.053-12.158-15.044-2.507-4.52-3.269-10.493-7.987-13.062 .583-1.322 1.236-1.407-1.908-1.911 4.42-14.168 7.669-29.167 21.874-36.281 12.682-6.351 29.156-5.769 43.007-5.769" fill="#0da600" fill-rule="evenodd"/>
 <path d="m111.65 42.051c9.067 7.784 17.582 17.125 28.625 21.982 4.619 2.031 11.856 4.74 16.916 2.568 3.677-1.578 12.601-9.704 15.205-8.563 27.131 11.889 46.459 30.133 67.868 50.046 20.188 18.779 42.421 34.946 60.705 55.548 17.174 19.35 26.964 45.592 36.661 69.183 9.381 22.82 18.639 50.65 22.14 75.19 2.208 15.476 3.667 27.245 1.362 42.621-1.682 11.227-17.433 20.259-28.406 18.224-13.986-2.594-26.448-5.095-39.69-10.113-14.024-5.314-25.143-8.571-39.923-10.686-14.55-2.082-28.127-4.764-42.392-8.336-10.918-2.734-24.907-8.129-32.176-16.971-16.288-19.813-24.498-42.062-29.038-67.396-4.849-27.053-9.462-54.127-13.973-81.239-0.466-2.805-5.464-9.77-7.105-12.236-3.481-5.23-6.221-10.78-9.701-16.011-3.05-4.583-6.041-9.989-8.508-14.932-2.558-5.125-9.962-6.769-15.354-8.389-11.96-3.594-24.195-7.992-32.334-17.775-3.636-4.371-12.67-20.701-10.992-22.578-6.695-1.533 9.273-30.927 14.877-33.733 14.52-7.268 29.352-6.404 45.233-6.404" fill="#29ad00" fill-rule="evenodd"/>
 <path d="m111.651,44.918c9.06,9.074 17.632,18.683 28.554,25.521 5.77,3.613 10.962,4.106 17.564,4.106 6.496,0 9.618-11.22 14.948-12.425 3.321-.75 12.198,5.597 15.372,7.717 6.209,4.146 11.875,8.444 17.653,13.179 9.604,7.872 17.285,17.434 26.329,25.845 19.717,18.337 42.685,34.313 60.475,54.358 18.89,21.287 28.124,46.758 39.327,72.412 9.901,22.672 57.258,147.421-3.689,133.333-14.749-3.41-27.86-7.465-42.018-12.83-13.604-5.156-25.674-7.027-40.186-9.104-25.645-3.669-54.267-8.267-71.54-29.278-14.3-17.395-20.989-40.393-24.934-62.404-4.771-26.622-9.318-53.263-13.757-79.943-1.213-7.291-9.824-18.724-14-25-3.166-4.758-5.594-9.841-8.755-14.588-4.73-7.104-5.568-8.321-13.866-11.785-10.753-4.488-21.614-5.984-30.773-13.629-8.31-6.936-10.254-19.391-16.815-26.302 1.157-.211 1.708-.736 2.862-.956-.879-.462-.973-.682-1.908-.956 2.736-10.963 5.868-27.788 17.245-33.485 13.129-6.573 27.619-5.217 41.912-3.786" fill="#47b500" fill-rule="evenodd"/>
 <path d="m149.818,221.726c2.327,12.823 5.148,25.41 8.304,38.053 2.944,11.795 3.588,25.903 8.404,36.929 11.704,26.792 35.759,38.028 63.089,44.872 5.472,1.369 36.123,9.344 38.965,4.599 5.778-9.647-7.046-25.762-12.638-33.762-15.9-22.753-33.122-43.972-50.427-65.633-13.053-16.341-21.005-35.63-35.303-51.252-3.271-3.575-7.311-6.014-11.279-8.797-5.523-3.874-8.82-.338-11.581,3.812-4.92,7.394.967,23.673 2.466,31.179" fill="#47b500" fill-rule="evenodd"/>
 <path d="m152.68,229.371c4.962,24.862 9.537,51.6 19.506,74.9 10.301,24.076 40.497,32.806 64.235,36.203 6.742.965 13.365,1.802 20.152,2.324 10.3.794 6.364-6.832 3.717-13.197-5.153-12.391-13.75-23.21-21.528-33.996-15.972-22.149-34.164-41.682-48.237-65.176-7.235-12.079-15.991-23.586-27.279-32.066-17.992-13.516-11.706,24.152-10.566,31.008" fill="#5cba00" fill-rule="evenodd"/>
 <path d="m156.5 237.02c1.319 11.888 4.222 23.938 7.634 35.361 3.547 11.875 3.795 24.644 10.495 35.361 14.785 23.651 43.75 26.212 68.327 30.688 5.271 0.96 14.761 3.651 12.034-5.45-2.306-7.699-6.108-13.293-10.468-20.085-7.236-11.276-14.792-21.447-23.14-31.913-7.566-9.485-17.567-18.865-23.438-29.447-6.77-12.207-13.231-24.485-23.154-34.423-5.543-5.552-13.802-13.26-20.557-6.494-4.061 4.069 1.398 21.762 2.267 26.402" fill="#70bf00" fill-rule="evenodd"/>
 <path d="m159.358,244.663c5.974,23.923 7.978,51.234 23.484,71.201 6.929,8.922 24.736,14.739 35.41,16.521 5.946.992 12.03,2.577 18.021,3.123 9.407.857 14.557,1.093 9.949-9.291-10.195-22.976-29.249-43.82-44.88-63.396-8.116-10.165-13.81-22.49-22.505-32.288-4.339-4.89-8.868-11.019-15.662-12.152-6.568-1.096-7.322,8.725-6.318,13.755l2.501,12.527" fill="#85c400" fill-rule="evenodd"/>
 <path d="m163.18 252.31c1.6 11.204 4.956 21.616 7.633 32.494 2.938 11.94 4.659 20.625 12.989 30.159 7.576 8.673 21.05 12.594 31.856 14.76 8.589 1.721 32.764 7.877 22.613-8.099-7.053-11.1-14.451-21.795-22.461-32.226-6.308-8.214-14.94-16.182-20.029-25.102-5.886-10.317-12.311-22.933-21.151-31.102-15.928-14.716-13.615 9.714-11.45 19.116" fill="#9ccc00" fill-rule="evenodd"/>
 <path d="m166.038,259.954c1.537,9.831 4.428,19.041 6.679,28.672 2.265,9.688 4.364,21.366 13.429,27.042 9.394,5.882 18.106,8.647 28.873,11.045 4.568,1.018 9.512,1.133 14.169,1.716 7.47.937 2.63-6.469.787-10.158-9.402-18.837-25.971-32.446-36.472-50.478-4.979-8.548-10.569-19.813-18.985-25.433-12.95-8.645-9.824,10.187-8.48,17.594" fill="#b0d100" fill-rule="evenodd"/>
 <path d="m169.86 267.6c2.866 14.379 3.71 35.27 15.861 45.415 6.956 5.808 14.213 7.837 22.816 10.3 7.744 2.217 20.661 5.916 15.71-6.017-6.629-15.975-22.927-27.442-31.669-42.036-5.333-8.901-9.732-15.682-16.994-22.953-9.73-9.745-6.592 11.382-5.724 15.291" fill="#c4d600" fill-rule="evenodd"/>
 <path d="m172.72 275.24c2.595 11.844 3.065 28.834 13.149 36.915 5.572 4.465 12.581 6.399 19.352 8.661 5.978 1.996 16.71 2.559 10.993-6.032-7.744-11.636-17.39-22.175-24.693-33.88-3.411-5.466-7.433-14.002-12.864-17.628-9.185-6.133-6.647 6.276-5.937 11.964" fill="#dede00" fill-rule="evenodd"/>
 <path d="m178.442,220.77c1.043,27.208 2.353,54.46-3.817,81.237-2.833,12.295-7.509,24.542-15.796,34.228-8.549,9.992-25.423,5.218-37.796,6.768-4.47.56-11.688,2.874-14.647,6.431-2.524,3.032-3.006,5.863-6.626,3.791-3.146-1.8-6.398-3.83-10.088-1.98-4.479,2.244-5.494,11.962.93,13.033 8.141,1.358 10.723-2.621 16.245-5.388 4.291-2.15 32.003-10.332 29.614-2.407-1.167,3.868-11.148,8.992-14.521,11.02-2.671,1.606-13.153,9.243-15.764,8.98-7.571-.76-17.875-.287-15.762,10.3 2.438,12.211 12.424,4.361 17.28-1.11 9.165-10.325 25.739-17.699 40.216-16.766-.591,6.197-16.493,17.476-21.203,22.194-4.215,4.222-12.192,4.583-12.192,12.247 0,7.601 10.245,8.403 14.313,3.31 3.816-4.78 5.033-10.542 9.083-15.41 4.59-5.517 9.685-10.492 14.275-16.009 3.325-3.997 8.86-7.464 13.594-9.496 5.58-2.396 13.337-1.746 18.176-4.977 8.479-5.661 8.198-24.81 10.509-34.071 3.322-13.316 6.692-26.624 9.379-40.081 2.546-12.753 7.589-25.709 11.174-38.281 3.374-11.831 9.519-23.681 8.774-35.966-.916-15.122-2.253-26.59-6.813-40.947-1.787-5.625-5.536-8.77-9.554-13.16-2.425-2.649-10.876-6.896-14.168-5.098-12.134,6.629-17.068,14.4-18.943,28.169-1.914,14.045 1.248,25.496 4.128,39.439" fill="#47b500" fill-rule="evenodd"/>
 <path d="m178.442,220.77c1.043,27.208 2.353,54.46-3.817,81.237-2.833,12.295-7.509,24.542-15.796,34.228-8.549,9.992-25.423,5.218-37.796,6.768-4.47.56-11.688,2.874-14.647,6.431-2.524,3.032-3.006,5.863-6.626,3.791-3.146-1.8-6.398-3.83-10.088-1.98-4.479,2.244-5.494,11.962.93,13.033 8.141,1.358 10.723-2.621 16.245-5.388 4.291-2.15 32.003-10.332 29.614-2.407-1.167,3.868-11.148,8.992-14.521,11.02-2.671,1.606-13.153,9.243-15.764,8.98-7.571-.76-17.875-.287-15.762,10.3 2.438,12.211 12.424,4.361 17.28-1.11 9.165-10.325 25.739-17.699 40.216-16.766-.591,6.197-16.493,17.476-21.203,22.194-4.215,4.222-12.192,4.583-12.192,12.247 0,7.601 10.245,8.403 14.313,3.31 3.816-4.78 5.033-10.542 9.083-15.41 4.59-5.517 9.685-10.492 14.275-16.009 3.325-3.997 8.86-7.464 13.594-9.496 5.58-2.396 13.337-1.746 18.176-4.977 7.176-4.791 7.794-25.805 8.729-34.229 1.449-13.053 6.712-26.303 10.084-38.968 3.4-12.772 6.715-25.57 10.34-38.281 3.164-11.094 9.612-23.833 8.827-35.254-.946-13.746-2.167-23.814-6.682-36.733-2.553-7.305-13.485-21.252-23.027-16.474-24.523,12.277-18.134,37.293-13.785,59.943" fill="#29ad00" fill-rule="evenodd"/>
 <path d="m178.442,220.77c1.043,27.208 2.353,54.46-3.817,81.237-2.833,12.295-7.509,24.542-15.796,34.228-8.549,9.992-25.423,5.218-37.796,6.768-4.47.56-11.688,2.874-14.647,6.431-2.524,3.032-3.006,5.863-6.626,3.791-3.146-1.8-6.398-3.83-10.088-1.98-4.479,2.244-5.494,11.962.93,13.033 8.141,1.358 10.723-2.621 16.245-5.388 4.291-2.15 32.003-10.332 29.614-2.407-1.167,3.868-11.148,8.992-14.521,11.02-2.671,1.606-13.153,9.243-15.764,8.98-7.571-.76-17.875-.287-15.762,10.3 2.438,12.211 12.424,4.361 17.28-1.11 9.165-10.325 25.739-17.699 40.216-16.766-.591,6.197-16.493,17.476-21.203,22.194-4.215,4.222-12.192,4.583-12.192,12.247 0,7.601 10.245,8.403 14.313,3.31 3.816-4.78 5.033-10.542 9.083-15.41 4.59-5.517 9.685-10.492 14.275-16.009 3.325-3.997 8.86-7.464 13.594-9.496 5.108-2.193 14.687-1.729 18.388-5.438 6.644-6.653 5.5-24.271 7.633-33.449 3.049-13.116 5.593-26.266 9.061-39.287 3.401-12.772 6.714-25.57 10.34-38.281 3.265-11.444 9.68-23.779 8.729-35.666-1.028-12.887-2.829-21.345-7.511-33.402-2.395-6.168-13.793-15.703-21.147-12.756-10.774,4.316-14.07,10.107-15.975,21.556-1.915,11.497.657,20.29 3.144,31.75" fill="#0da600" fill-rule="evenodd"/>
 <path d="m178.442,220.77c1.043,27.208 2.353,54.46-3.817,81.237-2.833,12.295-7.509,24.542-15.796,34.228-8.549,9.992-25.423,5.218-37.796,6.768-4.47.56-11.688,2.874-14.647,6.431-2.524,3.032-3.006,5.863-6.626,3.791-3.146-1.8-6.398-3.83-10.088-1.98-4.479,2.244-5.494,11.962.93,13.033 8.141,1.358 10.723-2.621 16.245-5.388 4.291-2.15 32.003-10.332 29.614-2.407-1.167,3.868-11.148,8.992-14.521,11.02-2.671,1.606-13.153,9.243-15.764,8.98-7.571-.76-17.875-.287-15.762,10.3 2.438,12.211 12.424,4.361 17.28-1.11 9.165-10.325 25.739-17.699 40.216-16.766-.591,6.197-16.493,17.476-21.203,22.194-4.215,4.222-12.192,4.583-12.192,12.247 0,7.601 10.245,8.403 14.313,3.31 3.816-4.78 5.033-10.542 9.083-15.41 4.59-5.517 9.685-10.492 14.275-16.009 3.325-3.997 8.86-7.464 13.594-9.496 5.999-2.575 12.695-2.109 18.388-4.959 5.658-2.832 4.432-28.316 5.848-34.462 3.118-13.531 6.274-27.044 9.418-40.562 3.15-13.551 7.153-26.987 10.969-40.364 1.52-5.329 3.145-10.645 4.895-15.903 2.878-8.646 2.861-12.319 1.625-21.4-1.625-11.938-10.327-41.164-28.302-33.16-18.744,8.343-13.445,29.481-10.179,45.837" fill="#009e00" fill-rule="evenodd"/>
 <path d="m178.442,220.77c1.043,27.208 2.353,54.46-3.817,81.237-2.833,12.295-7.509,24.542-15.796,34.228-8.549,9.992-25.423,5.218-37.796,6.768-4.47.56-11.688,2.874-14.647,6.431-2.524,3.032-3.006,5.863-6.626,3.791-3.146-1.8-6.398-3.83-10.088-1.98-4.479,2.244-5.494,11.962.93,13.033 8.141,1.358 10.723-2.621 16.245-5.388 4.291-2.15 32.003-10.332 29.614-2.407-1.167,3.868-11.148,8.992-14.521,11.02-2.671,1.606-13.153,9.243-15.764,8.98-7.571-.76-17.875-.287-15.762,10.3 2.438,12.211 12.424,4.361 17.28-1.11 9.165-10.325 25.739-17.699 40.216-16.766-.591,6.197-16.493,17.476-21.203,22.194-4.215,4.222-12.192,4.583-12.192,12.247 0,7.601 10.245,8.403 14.313,3.31 3.816-4.78 5.033-10.542 9.083-15.41 4.59-5.517 9.685-10.492 14.275-16.009 3.325-3.997 8.86-7.464 13.594-9.496 5.999-2.575 12.695-2.109 18.388-4.959 3.545-1.774 1.909-12.376 1.909-15.77 0-6.174 1.507-12.166 2.862-18.158 3.07-13.575 5.829-27.152 9.411-40.604 3.459-12.989 5.951-26.158 9.637-39.075 1.569-5.503 3.066-11.097 5.018-16.474 3.354-9.239 3.146-12.846 1.603-22.633-1.676-10.632-11.803-31.43-25.986-26.695-17.755,5.926-13.573,24.954-10.18,39.395" fill="#009600" fill-rule="evenodd"/>
 <path d="m178.442,220.77c1.043,27.208 2.353,54.46-3.817,81.237-2.833,12.295-7.509,24.542-15.796,34.228-8.549,9.992-25.423,5.218-37.796,6.768-4.47.56-11.688,2.874-14.647,6.431-2.524,3.032-3.006,5.863-6.626,3.791-3.146-1.8-6.398-3.83-10.088-1.98-4.479,2.244-5.494,11.962.93,13.033 8.141,1.358 10.723-2.621 16.245-5.388 4.291-2.15 32.003-10.332 29.614-2.407-1.167,3.868-11.148,8.992-14.521,11.02-2.671,1.606-13.153,9.243-15.764,8.98-7.571-.76-17.875-.287-15.762,10.3 2.438,12.211 12.424,4.361 17.28-1.11 9.165-10.325 25.739-17.699 40.216-16.766-.591,6.197-16.493,17.476-21.203,22.194-4.215,4.222-12.192,4.583-12.192,12.247 0,7.601 10.245,8.403 14.313,3.31 3.816-4.78 5.033-10.542 9.083-15.41 4.59-5.517 9.685-10.492 14.275-16.009 3.325-3.997 8.86-7.464 13.594-9.496 4.631-1.988 14.664-1.71 17.911-4.959 3.068-3.069 1.431-11.761 1.431-15.77 0-5.688.817-12.103 2.007-17.662 2.881-13.47 6.647-26.634 9.344-40.146 2.548-12.757 6.391-25.415 9.957-37.919 1.696-5.945 2.714-12.086 4.454-18.003 2.72-9.247 3.619-11.502 1.696-21.133-1.819-9.113-11.924-24.57-23.481-21.676-16.21,4.057-13.293,19.091-10.657,32.295" fill="#008f00" fill-rule="evenodd"/>
 <path d="m178.442,220.77c1.043,27.208 2.353,54.46-3.817,81.237-2.833,12.295-7.509,24.542-15.796,34.228-8.549,9.992-25.423,5.218-37.796,6.768-4.47.56-11.688,2.874-14.647,6.431-2.524,3.032-3.006,5.863-6.626,3.791-3.146-1.8-6.398-3.83-10.088-1.98-4.479,2.244-5.494,11.962.93,13.033 8.141,1.358 10.723-2.621 16.245-5.388 4.291-2.15 32.003-10.332 29.614-2.407-1.167,3.868-11.148,8.992-14.521,11.02-2.671,1.606-13.153,9.243-15.764,8.98-7.571-.76-17.875-.287-15.762,10.3 2.438,12.211 12.424,4.361 17.28-1.11 9.165-10.325 25.739-17.699 40.216-16.766-.591,6.197-16.493,17.476-21.203,22.194-4.215,4.222-12.192,4.583-12.192,12.247 0,7.601 10.245,8.403 14.313,3.31 3.816-4.78 5.033-10.542 9.083-15.41 4.59-5.517 9.685-10.492 14.275-16.009 3.325-3.997 8.86-7.464 13.594-9.496 4.631-1.988 14.664-1.71 17.911-4.959 3.528-3.529.478-11.449.478-15.77 0-6.844.822-12.49 2.355-19.145 3.021-13.111 4.813-26.659 8.271-39.646 3.723-13.978 7.435-27.838 10.267-42.025 2.165-10.852 12.45-24.773 4.446-35.462-6.071-8.106-14.04-15.637-24.896-12.531-11.648,3.331-8.305,16.009-6.17,24.565" fill="#008700" fill-rule="evenodd"/>
 <path d="m178.442,220.77c1.043,27.208 2.353,54.46-3.817,81.237-2.833,12.295-7.509,24.542-15.796,34.228-8.549,9.992-25.423,5.218-37.796,6.768-4.47.56-11.688,2.874-14.647,6.431-2.524,3.032-3.006,5.863-6.626,3.791-3.146-1.8-6.398-3.83-10.088-1.98-4.479,2.244-5.494,11.962.93,13.033 8.141,1.358 10.723-2.621 16.245-5.388 4.291-2.15 32.003-10.332 29.614-2.407-1.167,3.868-11.148,8.992-14.521,11.02-2.671,1.606-13.153,9.243-15.764,8.98-7.571-.76-17.875-.287-15.762,10.3 2.438,12.211 12.424,4.361 17.28-1.11 9.165-10.325 25.739-17.699 40.216-16.766-.591,6.197-16.493,17.476-21.203,22.194-4.215,4.222-12.192,4.583-12.192,12.247 0,7.601 10.245,8.403 14.313,3.31 3.816-4.78 5.033-10.542 9.083-15.41 4.59-5.517 9.685-10.492 14.275-16.009 3.325-3.997 8.86-7.464 13.594-9.496 4.631-1.988 14.664-1.71 17.911-4.959 2.543-2.545-.477-13.309-.477-16.785 0-6.127.018-12.119 1.402-18.129 3.034-13.167 6.551-26.42 9.192-39.646 2.833-14.188 6.546-28.047 10.267-42.025 1.523-5.724 2.472-11.478 4.495-17.052 2.852-7.854.698-11.817-5.212-17.737-5.449-5.459-12.686-8.202-20.204-6.947-9.128,1.521-6.008,12.467-4.712,18.307" fill="#008000" fill-rule="evenodd"/>
 <path d="m51.54 86.97c11.731-1.521 23.8 10.097 33.187 15.739 6.123 3.68 12.477 6.069 18.605 9.976 4.341 2.768 11.641 6.843 16.906 6.779-2.243-10.637-21.14-20.757-30.532-23.893-12.523-4.18-25.153-6.429-38.166-8.601" fill-rule="evenodd"/>
 <path d="m125.01 43.963c5.938 8.806 21.264 5.014 24.809-3.823 3.066-7.643-4.527-16.355-9.048-23.149-4.654-6.995-22.117-20.035-23.394-4.566-0.798 9.667 3.414 23.085 7.633 31.538" fill="#f0f0f0" fill-rule="evenodd"/>
 <path d="m121.19 3.823c6.677 1.085 7.42 13.552 0 13.38-6.9-0.161-6.317-12.504 0-13.38" fill-rule="evenodd"/>
 <path d="m90.66,0c7.95.166 6.958,13.379-.477,13.379-6.528,0-5.077-12.205.477-13.379" fill-rule="evenodd"/>
 <path d="m373.089,304.872c-10.04-23.461-19.015-49.625-37.475-68.118-19.608-19.643-40.407-34.482-67.436-41.383-13.846-3.535-26.675-8.507-40.913-7.17-5.822.547-15.846-.525-21.153,1.986-3.814,1.805-13.525,11.456-15.267,15.292-2.509,5.529-1.295,15.571-1.803,21.666-.505,6.071 3.106,13.738 4.607,19.563 3.675,14.263 10.307,26.594 16.736,39.876 10.413,21.513 29.331,41.023 44.388,59.384-19.194,0-38.357-1.57-57.526-2.579-17.513-.922-39.162-2.315-56.018,3.536-2.837.985-9.154,6.501-11.942,5.57-4.776-1.595-9.249-3.659-14.298-3.659-12.854,0-2.916,15.291 6.261,15.291 7.747,0 13.859-9.558 22.93-9.558 9.493,0 19.845.376 28.535,4.779-6.356.579-12.065,4.772-17.968,6.988-7.011,2.632-13.811,5.293-20.198,9.258-6.279,3.897-8.58,8.39-15.903,10.019-8.641,1.922-7.097,9.82-.109,12.621 8.094,3.244 8.64-3.067 12.195-8.303 3.434-5.057 10.349-8.426 16.045-10.566 13.849-5.204 28.581-7.96 43.112-4.725-11.306,4.754-18.778,16.032-28.624,22.937-5.878,4.122-35.92,7.729-23.645,17.561 4.71,3.773 12.015,2.599 16.965.121 3.648-1.827 3.444-3.475 4.572-7.429 .634-2.224 4.58-4.578 6.519-5.872 10.613-7.086 21.996-8.102 33.754-12.027 11.687-3.9 24.83-4.173 36.898-7.473 12.012-3.284 24.207-5.656 36.198-8.933 14.642-4 27.907-3.392 42.997-2.762 15.692.654 19.923-12.075 10.243-22.742-13.342-14.702-28.13-26.643-43.324-39.327 21.563,12.153 41.918,25.998 63.828,37.614 7.549,4.003 24.895,7.83 27.805-3.101 3.571-13.398.909-24.569-.986-38.335" fill="#008000" fill-rule="evenodd"/>
 <path d="m373.089,304.872c-10.549-22.889-20.575-47.695-39.477-65.171-9.792-9.054-19.812-17.599-31.388-24.313-13.267-7.693-25.554-10.401-40.545-14.154-15.092-3.779-24.581-5.103-40.07-4.133-10.765.674-26.21,5.614-27.326,18.469-.488,5.621-2.606,13.156-1.274,18.685l6.167,25.594c2.541,10.544 10.674,23.161 16.579,32.33 12.241,19.005 24.753,36.254 39.019,53.789-37.97,0-75.426-6.207-113.117.877-3.796.713-7.93,3.838-11.385,5.568-2.783,1.394-7.655-3.975-10.929-3.428-12.295,2.051-7.763,14.187 2.863,14.187 4.319,0 7.48-4.55 11.182-6.033 4.347-1.741 8.388-2.569 13.09-2.569 9.606,0 17.33,1.035 26.239,4.779-11.564,1.053-27.407,10.09-37.471,15.849-5.899,3.375-8.523,8.787-15.183,9.619-7.583.948-6.876,11.021.176,12.761 8.09,1.996 8.285-6.384 12.405-10.514 4.428-4.438 12.579-7.112 18.289-9.259 12.218-4.591 26.317-5.979 38.96-3.164-11.332,4.765-18.719,16.08-28.624,22.937-4.541,3.144-37.969,10.584-18.13,17.203 3.129,1.044 13.271,1.219 14.611-2.809 2.203-6.62 7.203-9.803 13.06-13.438 10.525-6.533 22.835-7.623 34.35-11.469 11.651-3.892 24.506-4.959 36.431-8.215 12.537-3.423 25.609-8.91 38.627-9.997 13.617-1.137 27.612.815 40.589-3.517 14.203-4.741-.021-23.351-6.483-29.284-10.328-9.482-21.113-18.373-31.876-27.357 21.563,12.153 41.918,25.998 63.828,37.614 7.549,4.003 24.895,7.83 27.805-3.101 3.565-13.399.903-24.57-.992-38.336" fill="#008700" fill-rule="evenodd"/>
 <path d="m373.089,304.872c-10.59-25.457-24.92-46.934-45.234-65.584-10.025-9.205-21.819-15.586-33.621-22.152-4.184-2.328-10.571-2.801-15.168-3.975l-28.772-7.346c-4.477-1.143-7.575-1.213-12.272-1.066-6.813.213-16.84-1.415-23.321.73-14.655,4.852-20.057,18.084-19.083,32.494 1.86,27.522 20.658,53.967 35.204,76.205 7.264,11.105 15.818,21.313 23.954,31.79-36.811,0-73.714-6.529-110.247.337-4.123.775-7.347,2.648-11.125,4.54-5.45,2.729-6.531-.881-12.21-1.054-11.418-.349-6.303,13.503 2.862,12.424 3.771-.444 6.079-3.772 9.333-5.076 4.347-1.741 8.388-2.569 13.09-2.569 9.606,0 17.33,1.035 26.239,4.779-10.886.991-26.311,9.463-35.815,14.9-4.843,2.771-9.853,9.609-14.755,10.426-6.543,1.091-7.76,9.498-.953,11.946 7.462,2.685 7.985-6.017 11.45-9.558 4.354-4.449 12.626-7.131 18.289-9.259 12.218-4.591 26.317-5.979 38.96-3.164-11.32,4.76-18.746,16.058-28.624,22.937-5.189,3.613-10.658,3.426-16.162,6.183-2.301,1.152-7.319,2.794-4.088,6.029 2.038,2.042 4.733,4.036 7.786,4.036 8.596,0 7.46-3.592 12.57-8.71 4.88-4.888 9.795-7.693 16.114-10.405 11.484-4.93 22.351-9.021 34.664-11.265 24.833-4.523 51.102-18.363 76.413-18.363 4.577,0 39.537,1.849 34.61-11.308-4.908-13.108-14.382-21.923-24.51-31.221-5.259-4.827-10.698-9.332-16.22-13.859 21.563,12.153 41.918,25.998 63.828,37.614 7.549,4.003 24.895,7.83 27.805-3.101 3.566-13.398.904-24.569-.991-38.335" fill="#008f00" fill-rule="evenodd"/>
 <path d="m373.089,304.872c-9.816-21.631-25.622-49.125-46.174-62.361-9.736-6.271-20.385-14.801-31.64-17.895l-45.124-12.407c-5.65-1.554-13.757-.041-19.589-.041-8.297,0-11.353-.449-18.147,3.954-7.593,4.922-9.894,5.051-11.196,13.749-1.172,7.822-1.715,12.231.025,19.787 5.893,25.58 18.949,51.282 35.037,72.229l18.493,24.08c-35.046,0-71.146-7.012-105.911-.478-9.111,1.713-16.13,8.014-25.067,5.456-9.316-2.667-7.644,11.726 1.213,11.269 3.375-.174 6.885-4.478 10.02-5.733 4.483-1.796 8.967-1.912 13.746-1.912 8.759,0 15.853,1.38 23.942,4.779-10.886.991-26.311,9.463-35.815,14.9-2.577,1.475-5.01,3.121-7.481,4.771-1.909,1.275-2.019,4.938-4.352,5.327-6.716,1.119-9.125,5.585-2.71,9.867 6.283,4.193 6.955-3.812 10.284-7.151 4.425-4.439 12.58-7.113 18.289-9.259 12.218-4.591 26.317-5.979 38.96-3.164-11.382,4.786-18.596,16.186-28.624,22.937-5.539,3.729-11.662,3.759-17.384,7.196-6.013,3.613 6.534,7.914 9.75,7.14 5.236-1.261 7.715-8.021 12.045-10.911 5.739-3.832 11.45-7.094 17.793-9.817 12.1-5.193 22.022-8.947 35.044-10.81 27.017-3.863 50.979-16.41 78.695-17.8 13.261-.665 27.168-6.163 17.33-20.947-6.976-10.482-16.248-19.94-25.979-27.918l-6.118-5.016c21.563,12.153 41.918,25.998 63.828,37.614 7.549,4.003 24.895,7.83 27.805-3.101 3.569-13.397.907-24.568-.988-38.334" fill="#009600" fill-rule="evenodd"/>
 <path d="m373.089,304.872c-11.467-22.971-28.133-44.268-49.62-58.619-10.588-7.072-20.706-12.026-32.91-15.382-12.806-3.521-26.985-9.806-40.338-10.211l-25.781-.782c-5.739-.174-12.304,5.944-17.126,8.785-3.735,2.201-4.006,13.351-4.929,17.511-1.195,5.387 3.915,15.773 5.318,21.164 2.788,10.706 9.729,22.084 15.5,31.605 7.854,12.956 15.715,25.291 24.636,37.519l6.936,9.506c-32.551,0-67.613-7.676-99.866-1.613-4.405.827-9.447,1.102-13.678,2.57-3.772,1.31-7.53,5.135-11.45,5.734-2.72.416-8.763-4.56-10.497.955-.949,3.02 4.137,7.524 6.679,7.646 3.16.151 7.658-4.214 10.705-5.435 3.733-1.496 8.173-1.256 12.106-1.256 8.759,0 15.853,1.38 23.942,4.779-10.044.915-25.042,8.736-33.837,13.77-4.136,2.366-10.174,10.395-13.906,11.327-6,1.5-5.647,9.309.513,9.309 4.883,0 6.596-6.354 11.181-9.108 5.067-3.043 10.073-5.642 15.765-7.351 12.269-3.686 24.914-5.447 37.459-2.654-10.852,4.563-18.409,15.262-27.635,22.193-2.598,1.952-4.258,3.542-7.493,3.946-2.055.258-8.056.565-8.763,3.486-1.449,5.98 8.165,5.841 11.415,5.027 3.24-.812 9.185-8.907 12.797-11.319 4.898-3.271 9.605-5.554 14.648-8.44 5.562-3.184 11.494-5.803 17.435-8.205 6.133-2.48 12.49-1.745 18.694-3.609 11.656-3.505 23.189-8.579 35.057-11.222 13.653-3.04 26.479-5.247 40.438-6.801 16.115-1.793 20.612-10.89 13.029-24.561-5.743-10.353-18.084-19.077-27.068-26.442 21.563,12.153 41.918,25.998 63.828,37.614 7.549,4.003 24.895,7.83 27.805-3.101 3.568-13.398.906-24.569-.989-38.335" fill="#009e00" fill-rule="evenodd"/>
 <path d="m373.089,304.872c-25.781-46.479-74.718-73.984-127.499-77.188-4.539-.275-15.731-3.147-19.818-.979-4.201,2.229-14.887,5.343-16.338,9.992-2.092,6.7-4.822,11.695-2.983,18.447 1.81,6.647 3.148,13.491 6.036,19.758 11.785,25.58 25.863,48.217 42.288,71.066-32.069,0-66.94-7.802-98.706-1.832-9.875,1.856-16.836,3.789-25.796,8.277-1.941.972-6.677-2.399-8.126,1.201-1.008,2.505 3.009,6.541 4.771,6.69 2.206.187 7.717-4.162 10.495-4.778 4.184-.928 8.141-.957 12.405-.957 8.348,0 15.203,1.545 22.899,4.779-9.325.85-23.994,8.137-32.181,12.821-6.288,3.599-25.17,14.363-13.618,20.151 2.775,1.39 6.493-5.719 9.75-7.676 5.067-3.043 10.073-5.642 15.765-7.351 12.269-3.686 24.914-5.447 37.459-2.654-10.294,4.329-17.095,14.273-25.797,20.813-4.856,3.648-9.831,4.251-14.489,7.362-3.406,2.275 5.686,8.403 9.277,4.797 16.987-17.057 37.077-27 60.271-32.159 11.501-2.559 22.249-6.862 33.395-10.583 12.987-4.336 26.321-5.396 39.752-7.77 12.713-2.247 21.421-8.685 14.988-21.574-5.376-10.773-16.072-18.923-24.842-26.832 21.563,12.153 41.918,25.998 63.828,37.614 7.549,4.003 24.895,7.83 27.805-3.101 3.566-13.397.904-24.568-.991-38.334" fill="#0da600" fill-rule="evenodd"/>
 <path d="m373.089,304.872c-26.188-41.969-74.313-64.541-122.728-68.952-5.95-.542-13.5-2.577-19.44-1.771-2.744.373-16.563,4.849-17.34,7.182-4.296,12.91-5.398,23.727 1,36.543 11.906,23.851 25.226,46.047 40.193,68.094-25.251,0-50.395-2.866-75.655-2.866-12.382,0-24.159,1.243-36.301,3.524-2.646.498-4.909,1.963-7.312,3.166-1.083.542-8.082,2.358-8.588,2.867-2.263,2.272-1.368,4.648.954,7.646 10.892-10.404 32.333-6.214 44.845-.956-8.458.771-24.966,8.07-32.082,12.821-3.881,2.591-23.398,13.865-12.763,19.194 .374.188 20.417-12.825 24.561-14.069 12.269-3.686 24.914-5.447 37.459-2.654-9.705,4.081-16.998,13.342-24.808,20.069-2.076,1.788-4.451,3.344-6.644,4.991-1.793,1.347-5.955-.325-6.714,2.654-.905,3.551 4.825,4.778 7.156,4.778 2.244,0 9.743-8.82 11.926-10.513 4.391-3.403 9.236-7.197 14.053-9.955 11.17-6.394 21.081-10.438 33.655-12.981 11.201-2.265 21.331-7.122 32.122-10.725 11.404-3.808 23.093-5.632 34.823-8.15 9.53-2.045 23.268-5.785 20.164-18.222-2.998-12.017-13.888-20.445-23.181-27.894 21.563,12.153 41.918,25.998 63.828,37.614 7.549,4.003 24.895,7.83 27.805-3.101 3.569-13.397.907-24.568-.988-38.334" fill="#29ad00" fill-rule="evenodd"/>
 <path d="m373.089,304.872c-28.682-40.225-79.232-55.898-126.307-61.614-9.166-1.113-26.78-3.042-30.729,7.248-4.273,11.131-1.713,21.427 3.028,32.35 9.67,22.277 23.218,42.287 35.693,63.112-25.251,0-50.395-2.866-75.655-2.866-12.382,0-24.159,1.243-36.301,3.524-2.937.553-12.682,4.007-13.992,6.033-1.222,1.89-.322,4.24 0,6.689 10.519-9.886 32.042-4.979 43.891,0-10.066.917-26.822,9.31-35.196,14.9-8.319,5.555-13.697,8.415-7.74,16.638 10.175-16.661 43.205-20.011 60.111-16.246-9.016,3.791-17.384,12.633-24.212,19.472-6.658,6.669-14.24,5.087-6.798,12.544 .144.145 22.39-18.695 25.285-20.548 9.634-6.166 19.426-12.937 30.921-14.088 11.241-1.127 22.025-6.047 32.313-10.463 10.064-4.319 20.782-4.776 31.032-8.197 7.589-2.533 25.813-6.364 23.899-17.845-1.95-11.707-11.426-19.286-19.888-26.821 21.563,12.153 41.918,25.998 63.828,37.614 7.549,4.003 24.895,7.83 27.805-3.101 3.569-13.398.907-24.569-.988-38.335" fill="#47b500" fill-rule="evenodd"/>
 <path d="m271 94.616c4.325-5.983 17.261 6.39 11.45 11.468-5.763 5.037-15.257-5.757-11.45-11.468" fill="#29ad00" fill-rule="evenodd"/>
 <path d="m314.88 135.71c5.958-3.817 17.077 7.319 11.45 12.425-5.707 5.178-15.448-6.482-11.45-12.425" fill="#29ad00" fill-rule="evenodd"/>
 <path d="m357.82 230.33c4.309-5.957 17.777 5.961 11.45 11.469-5.718 4.978-15.28-5.721-11.45-11.469" fill="#29ad00" fill-rule="evenodd"/>
 <path d="m257.64 201.66c7.069-5.018 7.635 5.721 7.635 8.123 0 1.884-13.893-3.423-7.635-8.123" fill="#29ad00" fill-rule="evenodd"/>
 <path d="m305.34 215.04c4.756-3.655 12.257 3.967 8.109 8.123-3.766 3.775-10.856-4.428-8.109-8.123" fill="#29ad00" fill-rule="evenodd"/>
 <path d="m313.93 256.13c4.05-3.021 11.131 5.105 7.633 8.601-3.545 3.54-10.965-4.252-7.633-8.601" fill="#29ad00" fill-rule="evenodd"/>
 <path d="m184.167,268.556c5.885.078 5.489,11.1.954,11.469-4.837.393-7.383-11.384-.954-11.469" fill="#29ad00" fill-rule="evenodd"/>
 <path d="m181.3 301.05c4.541 0.963 7.84 12.426 1.431 12.426-5.713 0-5.296-11.223-1.431-12.426" fill="#29ad00" fill-rule="evenodd"/>
 <path d="m291.98 167.25c6.006-4.015 16.697 6.983 11.45 12.424-4.362 4.524-18.599-7.382-11.45-12.424" fill="#29ad00" fill-rule="evenodd"/>
 <path d="m230.92 108c5.326-2.935 16.91 6.961 11.45 12.423-6.029 6.032-14.996-6.617-11.45-12.423" fill="#29ad00" fill-rule="evenodd"/>
 <path d="m250 67.855c6-0.552 12.446 10.711 5.726 13.38-6.248 2.481-11.868-10.42-5.726-13.38" fill="#008700" fill-rule="evenodd"/>
 <path d="m309.16 117.55c6.318-4.413 15.208 12.09 7.635 15.291-7.118 3.009-12.514-11.738-7.635-15.291" fill="#008700" fill-rule="evenodd"/>
 <path d="m362.59 199.74c5.476-4.794 13.719 10.177 7.634 14.336-6.331 4.325-15.156-11.778-7.634-14.336" fill="#008700" fill-rule="evenodd"/>
 <path d="m283.4 198.79c4.917-6.114 18.277 3.053 14.312 9.556-4.3 7.051-14.942-3.563-14.312-9.556" fill="#008700" fill-rule="evenodd"/>
</svg>
